<?xml version="1.0" encoding="utf-8"?>
<!-- Generator: Adobe Illustrator 24.1.1, SVG Export Plug-In . SVG Version: 6.00 Build 0)  -->
<svg version="1.1" id="katman_1" xmlns="http://www.w3.org/2000/svg" xmlns:xlink="http://www.w3.org/1999/xlink" x="0px" y="0px"
	 viewBox="0 0 900 600" style="enable-background:new 0 0 900 600;" xml:space="preserve">
<style type="text/css">
	.st0{fill:none;}
	.st1{fill:none;stroke:#444444;stroke-width:0.75;stroke-miterlimit:11;}
	.st2{font-family:'Tahoma';}
	.st3{font-size:11px;}
	.st4{font-size:10.9988px;}
	.st5{font-size:10.0006px;}
	.st6{font-size:5.9996px;}
	.st7{font-size:6px;}
	.st8{font-size:8.0006px;}
	.st9{font-size:10px;}
	.st10{font-size:9px;}
	.st11{font-size:5px;}
	.st12{font-size:8px;}
	.st13{font-family:'ArialMT';}
	.st14{font-size:14px;}
</style>
<path class="st0" d="M0,0"/>
<g>
	<path class="st1" d="M763.1,321.6l2.4,2.7l-0.4,2.4l-1.8-1l1-1.7L763.1,321.6z"/>
	<path class="st1" d="M128.3,176.1l-0.1,1.9l-2.8-2.1l-1.4,0.2l3.3-4l0.9-3.9l0.9,3.3L128.3,176.1z M56.6,145.4l-1.5,0.5l-1.2-5.2
		l0.2-2.2l2.8,2.7L56.6,145.4z M151.8,180.9l2-2.2l-0.5,2.4L151.8,180.9z M154.4,181.1l-0.1-0.9l0.8,1L154.4,181.1z M148.5,54.5
		l-3.1,0.8l-2.7,4.9l1.6,4l-0.1,6.5l2.2,3.6l0.7,3.8l-2,3.4l-0.4,3.8l-1.5,6.2l1.5,3.3l-0.5,1.2l2.5,2.1l0.2,5.5l-0.5,2.9l1.1,6.1
		l-1.3,6.6l2.5,6.3l2.3,1.8l0.6,3.5l4.3,1.5l3.5,4.5l6.2,5.7l3.2,4.6l-0.9,0.9l2.5,4.9l-0.1,4.5l2.3-1.7l1.6,4.6l2.3-1l1.4,2.8
		l1.8,6.8l2.3,1.6l3.7,0.6l-0.9,4.4l1.9,2.5l-0.7,2l0.9,3.5l-17.3-1.4l-14.3-1.1l-0.9-3.5l1.5-2.1l-1.5-1.6l2.5-5.5l-2.6-5.5
		l-2.6-0.5l-4.3-8l-2.7-1.2l-0.7-3.7l-2.1-0.9l-5.3-7.8l-5-1.8l-2.1-3.1l-3.7-2.9l-1.2,0.2l-4.4-4.6l0.3-3.9l-2.4-1.9l1-3.7
		l-0.6-7.2l-4.7-4.3l1-6.9l-0.5-2.3l-2.4-1.7l-1.5-2.9l-2-0.1l1.2-5.4l-0.5-2l-3.8-6.7l-3.1-3.4l0.9-2.9l-2-2.9l2,1.1l1.4-3.6
		l-3-1.8l-1.8-2.4l-1.6-7.5L96.4,55l-1.6-5.3l0.1-2.1l56.4,1.2l-2.2,3.1L148.5,54.5z M175,150l-5.1-7l0.7-3.9l1.5,0.1l3.5,4.9
		l-0.7,2.1l4.5,0.9l1,8.6L175,150z"/>
	<path class="st1" d="M254.4,293.9l-1.6,0.3l-0.9-1.6l-0.7-4.9L254.4,293.9z M200.5,281.2l2.7,0.2l4.1,4.3l-0.5,1.9L200.5,281.2z
		 M240.8,282.5l1.7,2.2l-1,1.8l-2-4.8L240.8,282.5z M235.5,268.8l1.5,4.4l-3.1-2l-1.4-2.3h3V268.8z M196.5,268l-1.9,5.5l-2-0.3
		l2.8-6l2.1-6.8l0.4,1.3l-1.8,4.9L196.5,268z M225.5,239.6l-4.6,6.6l0.6-2.9l1-3.1L225.5,239.6z M151.8,180.9l1.5,0.2l0.9,2l0.3-2
		l0.7,0.1l0.1,0.1l0.1-0.1l14.3,1.1l17.3,1.4l-0.5,3.7l3.9,6.1l5.3,2.8l1.8,5.7l2,3.3l-0.5,1l2.9,2.4l3.3,1.3l-1.8,3.1l3.4,4.4
		l-1,2.5l2.7,4.7l2.7-0.1l-3.2-3.9l-0.6-4.7l0.8-0.4l6,5.9l-0.4,3.3l3,1.8l-0.7,3.3l1.6,1.9l-0.2,2.1l1.7,5.1l-1.2,3l1,5.2l2.2,2.3
		l2.2,5l2.3,0.5l-0.2,1.8l2.6,8.6l3.5,3.7l2.3,5.8l-1.8,3.4l-0.6,3.4l1.2,5.5l2.8,4.2l5.2,2.9l1.4-2.8l-0.9-2.7l2.7-0.6l1.4,2.5
		l4,2.7l0.4,3.1l4-0.3v4.2l3,3.3l0.3,4.1l5,2.7l1.2,2.8l-0.1,4.4l-2.8,5.2l-4.7,1.9l-4.7,4.2h-1.5l-3.5-4.2l-1.4-8.4l-3.3-6.2
		l-6.6-4.3L223.2,294l-10.4-6.9l-3.6-4l-1.4-3.3l-0.5,1.5l-2.6-0.5l-0.9-3l-2.8-3.6h-3.1l-1.2-2.9l0.8-8.3l1.5-2.3l0.4-5.5l-0.7-0.1
		l0.4-7.4l-1.9-7.6l-2.3-1.7l-1-3.7l-2.3-2.4l-1.4,0.7l-5.5-4.2L177,222l0.2-1.5l-2.4-4l0.8-5l-3.9,5.8l-1.8-1.5l-3.4-0.2l-1.1,1.9
		l-2.3-0.3l-2-2.2l-1.9-4.3l-3.4-1.7l-1.2,0.5l-2.4-3.8l-2.8-1.6l-1.5,0.7l-4.5-3.5l-0.1-4.8l-2-2.1l-3.3-1.6l-2.6-4.6l-1.2,0.3
		l-3.1-2.9l-0.3-2.9l10.9,3.4l2.6,0.3l4.5-2.5l0.7,4l3.1,2.1l1,1.9l1.6-1.8l2.2,0.5l0.9-1.7l-2.6-1.1l-2,1.1l-1.5-3.5l0.4-3.4
		l-2.6,1.6L151.8,180.9z"/>
	<path class="st1" d="M199.7,164.2l-6.7-4.6l2.5-2.5l-0.1-2.9l1.8-3.4l3.8-0.4v2.4l1.7,3.4L199.7,164.2z M149.8,76.5l-1.2,0.6
		l-1.8-1.8l1.1-1.1L149.8,76.5z M288.9,222L273,234.4l-2.8-0.5l0.1-4.2l-6.4-7.2l-0.1,1.8l-3.2,0.1l-2.6-1l-2-2.7l-2.4-7l-7.7-3.1
		l-2.7-2.8l-3.1-1.6h2.6l-3.7-4.3l-0.7-4.4l1.2-1.7l-0.7-4l2.3-0.8l-6.9-2.7l-0.9-1.7l-1.1,4.1l-2.6-3.7l-1.5,0.7l-4.5-3.4l-4.9-9.4
		l-5.5-2.5l-1-3.5l-4.2-5.1l0.7-1.2l-2.5-1.8l-2.7-3.7l-0.1-3.4l-1.3-2.3L202,148l-2.3,0.3l-2-2.3l1.2-2.3l-6.5-12.9l-1.5-0.5
		l0.4-7.2l-2.3-2.5l0.1-4.5l-2.6-3.1l-1.9-4l-0.9-4l2.7-9.3l-4.1-2.8l-7.4-2l-1.3-1.8l-0.8-4.1l-2.6-2l-3.8-1.4l-2.3,2.8L161,84
		l-7.4-5.8l-1.9-2.4l-2.2-0.4l-5.6-4.6l0.1-6.5l-1.6-4l2.7-4.9l3.1-0.8l74.9,34.8l10,4.6l1.5,0.3l47.7,2.4l-2.3,13.7l5.5,5.5
		l2.4,1.1l2.6,2.7l0.6,12.9l-0.4,1.2l-2,16.2l-2.3,0.2l1.4,17.4l-0.7,4.5l2.3,8l-2.5,2.1l-5.7-1.6l-4.6,0.2l-2,2.6l2.8,7.6l2.7,2
		l0.7,2.2l2.6,2.3L283,199l2.9,3.2l0.2,5.5l-1.1,3.5l2.4,4l2.4,1.6l0,0l0.1,0.3l0,0L288.9,222z M269.1,236.9l0.8-1.8l-0.6,1.8H269.1
		L269.1,236.9z M270.7,236.3l0.2-1.9l1.7,0.8l-0.8,0.5L270.7,236.3z"/>
	<path class="st1" d="M219.9,442.8l-3.6-1.3l1.8-2.6l2.2,3L219.9,442.8z M406.1,447l-6.1-5l-9.1-4.1l0.7-1.7l-7.4-1.8l1.5-2.7
		l1.5,0.5l6.7-2.4l2.4-4.2l1.8-0.9l5.6,2.9l5.1-2.4l0.9,2.1l2.7,2.4l-0.7,6.1l1.2,3.5l-3.3,2l-0.5,2.5L406.1,447z"/>
	<path class="st1" d="M332.1,363.8l2.8,1.2l-0.4,2.6l-2.1-1.1L332.1,363.8z M391.3,347.1l-0.1,0.9l-0.3,0.7l-1.8,5l7.6,8.3l-1.5,5.2
		l-1.3,2.1l6.8,3.9l-0.9,2.9l-2.6,1.8l-3.6,1l0.3,5.4l-1.5,3.1l-0.4,4.2l-4.9-3.7l-1.2-1.8l-2.5-0.4l-2.7-2.4l-1.8-0.3l-3.2,2.4
		l-4.4,0.3l-5,6.4l-1.8-2.1l-3,0.3l0.6-3.2l3.7-4.4l2-0.9l0.4-4l-0.7-3.8l1.2-4.1l-5.5-3l-5.4-9.8l-0.7-2.5l0.1-5.7l-1.7-7l2.8-1.1
		l3.7,1.6l0.6-1.6l-1.1-3.7l-2.1-2.9l3.1-3l-0.5-2.3l2.1-1.3l6.5,0.5l4.6,2.8l1.5,3.4l-2.7,3.1l0.6,3.7l5-3.7l2.7,1.5l2,4.6l2.8,1.2
		l3.6-1.7L391.3,347.1z"/>
	<path class="st1" d="M724.3,432.7l-3.4,2.3l-4.2,0.9l6.8-3.9L724.3,432.7z M789.3,450.7l-0.1,3.9l-48,3.7l-0.8,0.5l-0.3-4.7
		l-3.1,0.1l-5.7-2l-6.8-0.8l-1.4,4.4l-6,0.4l-2.9-1.4l-5.3-4.1l-0.4-8.3l-5.5,0.5l-1.6-1.2l-2-4l10.9-2.2l3,0.1l2.5,2.1l-3.9,0.2
		l5.8,2.9l5.5,1.1l2.2-2.1l4.5-2l1.5-4.7l-4.2-2.3l-0.5-1.5l6.8-4.4l5.7-4.6l4.9-6.4l-0.1-8.8l0.9-2.8l4.6-4.3l-0.9-4.1l-0.1-9.6
		l-0.7-3.5l0.6-5.9l1.5-2.4l0.4,7.8l4.2,0.7l2,2.2l2.8,0.1l1-1.7l2.3,3.9l2.1,1.4l1.8,3.5l5,3l2.3,3.4l3,2.9l1.4,3.5l1.2,1.6
		l6.8,4.7l3.6,5.1l0.3,5.3l-1.5,2.1l-0.1,7.8l3.1,13.6l-2.7,5.1L789.3,450.7z"/>
	<path class="st1" d="M846,370l-3.9,7.7l-1.7,1.8l-0.8-5l1.5-3.3L846,370z M822.3,345.7l1.3,0.8h6.7l1.8-1.1l0.6-2.6l-3.6,0.4l3.4-2
		l3.7,1.1l2.3,3.2l2.6,0.1l1,6.4l2.1,1l-1.8,4.4l-0.8,4.9l-4.4,7.2l-4,4.2l-4.7,9.1l0.1,9.1l-4.4,5.9l-2,0.3v1.8l2.3,1.3l-0.1,1.8
		l2.7-2.1l3.4,0.1l0.4,1.8l-5.6,4l-0.4,3.8l1.3,0.5l1.7-2.9l2.3-0.4l-2.5,9l-0.8,7.4l-1.5,2.5l-0.5,8l-1.1,2l-0.3,4.1l-0.9-3.7
		l-2.2-3.1l-3.9-1.2l1.5-5.6l-1.4-5.2l-2.4,3.4l-3.2,8.1l-5.5,0.7l-2.8,7.4l-2,1.8L800,447l-3.4,5.1l-4.8-2.8l-2.5,1.7l-0.4-2.3
		l2.7-5.1l-3.1-13.6l0.1-7.8l1.5-2.1l-0.3-5.3l-3.6-5.1l-6.8-4.7l-1.2-1.6l0.8-4.9l4.3-1.1l3.6-2.9l3.8-0.8l5-4.3l6.6-3.6l1.5-3.5
		l2.6-1.5l2.6-3.6l3.9,0.3l2.8-1.8l5.5-5.3l2.8-9.1l-1.8-4.3l1-5.5L822.3,345.7z"/>
	<path class="st1" d="M537.8,435.5l-1.5,1.6l-2.8-0.1l-0.7-1.9l-3.2-1.1l0.5-0.9l-1.4-5.9l-3.6-6.3l-3.4,5.8h-1.3l-0.5,3.4l1.3,2.7
		l-1.2,3.1l0.8,2.5l-4.2,3.9l-0.5,3.5l-2-0.3l-2.3-2l-3.1,4l-1.7-1.1l-5.8,1.6l-1.9,3.3l-3.2,2.8l-2.4-1.7l0.4-2.1l-2.2-3.1
		l-0.7-5.4l-4.4-0.7l8.2-10.9l-0.9-1.8l4.4-2.8l-1.5-3.9l2.1-10.4l4.2-6.5l0.3-2.2l2.4-1.7l5.3,4.8l2.3-0.9l1.7,2.7l-0.7,2.9
		l1.9,1.2l1.7,4.3l4.5-6.4l4.7-1.8l2.3,3l-0.9,3l1.4,0.5l2-2.3l3.6,0.9l2.5,2.9l-1.2,4.3l-1.3,0.2l1.9,3.2l-0.7,2l1.2,5.5
		L537.8,435.5z"/>
	<path class="st1" d="M529.6,433.9l3.2,1.1l0.7,1.9l2.8,0.1l1.5-1.6l-0.1,3.7l-1.9,2.2l1.7,3.4l-2-0.1l2.2,7.2l-3.5-1.8l-6.1,4.2
		l-4-5.5l-1.2,2.8l-2.3,0.1l-2.1-1.9l-2.3-4l0.5-3.5l4.2-3.9l-0.8-2.5l1.2-3.1l6.4,2.1L529.6,433.9z"/>
	<path class="st1" d="M529.6,433.9l-2,1l-6.4-2.1l-1.3-2.7l0.5-3.4h1.3l3.4-5.8l3.6,6.3l1.4,5.9L529.6,433.9z"/>
	<path class="st1" d="M505.9,400.9l-2.4,1.7l-0.3,2.2l-4.2,6.5l-1.4-1.1l-0.1-3l-2.9-3.4l-2.3-1.6l-3-4.5l-0.2-2.9l-2-5.4l2.6-6.3
		l3.6,1.8l1.8-1.1l1.8,1.5l2-1.1l1.2-6.7l2.3-1.3l3.4,1.1l3-2.5l-2.3-1.2v-3.5l1.7-2.7l3.9,3.3l4.8-1.3l4.5-6.1l2.8,7.3l-0.3,2.5
		l1.8,0.5l0.1,2.6l-4.7,1.7l-3.5,0.4l0.4,2.3l-1.5,3.7l-1.9,1.7l-0.7,2.8l0.9,1.9l-3.5,2.7l-4.8,1.7L505.9,400.9z"/>
	<path class="st1" d="M740.4,458.7l1.1,15.5l-11.8,0.8l1-2.3l-3.1-2l0.1-1.3L724,468l-2.3-5.5l-2.6-0.2l-0.9-4.4l-4.7-0.2l-3.8,3.5
		l-5.7,3l-1.7,2.5l-6.4,6.7l-3.9-0.7l-2-2.9l-2.2-0.9l-0.9-5.2v-5.2l-2.3,1l-3-1.9l-3.1,0.6l-2.2,9.2l-2.3,2.5l-1.9,5.1l-1.5-1.2
		l0.6-3.6l-3.4-3.3l-5.5-2.1l-1-1.9l-2.8-1.3l0.5-3.1l-2.6-5.8l7.1-3.2l-0.4,1.5l2.9-0.9l2-2.2l2.4,0.2l0.2-2l3.5-1l9.1-0.6l6.4-1
		l3.9-4.5l5.6-1.4l2,4l1.6,1.2l5.5-0.5l0.4,8.3l5.3,4.1l2.9,1.4l6-0.4l1.4-4.4l6.8,0.8l5.7,2l3.1-0.1L740.4,458.7z"/>
	<path class="st1" d="M660.7,511.5l3.6,2.7l-4.1-1.6L660.7,511.5z M729.7,475l3.9,1.6l6.4,7.1l9.2,4.3l3.1,4.2l0.2,3l2.4-0.4
		l4.6,3.2l-1.6,1.8l0.8,4.1l-1.5,2.7l-33.2,2.2l-0.7,0.7l-10.9,22l0.1,1.5l3.7,4.4l-2,2.3l-0.7,5.1l0.9,3.1l-2,4.6l-12.9-12.1
		l-4-4.9l-3.9-2.1l-6.9-6.3l-11.9-8.8l-7.9-4.4l2.3-0.6l-1.2-1.8l-5-1.4l1-3.6l-2.6-6.4l2.1-4.4v-4.2l3-2l0.9-3.7l-0.4-3.9l6.1-4.6
		l1.2-2.1l1.9-5.1l2.3-2.5l2.2-9.2l3.1-0.6l3,1.9l2.3-1v5.2l0.9,5.2l2.2,0.9l2,2.9l3.9,0.7l6.4-6.7l1.7-2.5l5.7-3l3.8-3.5l4.7,0.2
		l0.9,4.4l2.6,0.2l2.3,5.5l3.7,1.4l-0.1,1.3l3.1,2L729.7,475z"/>
	<path class="st1" d="M500.3,195l1.7,1.3l0.7,1.5l-4.7,2.8l0.2,2l3.1,0.3l2.7,9.6l-1,3.9l0.7,2.6l3.4,1.6l-2,4.3l2-0.1l3.9,1.6
		l0.8,1.5l-0.8,2.9l0.8,2.7l1.5-1l2,2.8l2,0.3l1.2,6.1l2.8-1.2l3.4,3.3l1.8-2.6l6,1.5l0.4,0.8l0.7,13.6l2.7,1.3l-10.5,9.9l-3.7-0.8
		l-3.6,3.5l0.7,6.1l-3.3-1.4l-4.5,2.6l-1.6,2.6l-2.6,0.3l-2,1.9l0.7,2.6l2.6-1.2l0.9,4.7l-0.9,5.6l0.7,2l3.4,2.9l-3.3,5.3l-6,1
		l-2.6,6l1.3,4.1l-3.5-1l-2,1.7l1.8,1.2v2l-6.8-0.2l-0.3,1.8l-2.5-1l-0.9-5.2l0.4-2.7l-1.2-4l0.1-4.5l-2.4-2.9l-0.7-2.6l-0.3-7.1
		L478,284l1.3-5.2l-0.7-4l1.5-1.9l-2.6-2l1.5-2.9l2.8-1.8l3.2-0.6l3.6,0.9l3-0.5l1.5-1.9l-2.6-1.8l-3.7,0.2l-3-1.9l-2.4-3.1l2.3,0.9
		l-2.2-3l-1.6-0.2l-3.2-4.6l-0.1-4.7l-1.9-1.2l-0.3-2.2l-2.6-1.9l-1.8-3.5l-2.6-2.3l11-10.2l1.1,3.1l2.9-4.2l0.7-7.4l-3-1.8
		l-0.9,2.2l-2.1-1.1l-0.1-4.2l4.2-3.4l4.6-1.6l1-6.1l1.2-2.8l3.5-2.6l5.3,4.1L500.3,195z"/>
	<path class="st1" d="M269.3,236.8v2.2l1.3-2.8l1.1-0.7l0.8-0.5l1,2.6l-0.6-3.3l15.9-12.4l1-5.2l0,0l2.5-2.3l2.8,1.1l1.4,2l4.2,1.6
		l0.4,2.8l3.9,6.1l0.8,9.7l0.7,1.4l8.5,2l1.7,1.4l2,5.9l3.2,2.1l4.6,4.3l-3.2,3.8l-0.9,2.2l-0.9,6.3l2.1,7.5l2.5,3.4l1.9,0.3
		l2.4,2.4l3.3,6.1l0.6,3.1l2.2,2.1l2.6,0.2l3.3-2.8h1.9l3.6,3.1l2.5,5.7l2.2,0.3l-1.4,3.4l0.4,6.2l1.8,4.1l2.8,2.8l0.7,4.6l3.4,3.8
		l3.9,0.4l0.1,3.2l-2.1,1.3l0.5,2.3l-3.1,3l2.1,2.9l1.1,3.7l-0.6,1.6l-3.7-1.6l-2.8,1.1l-1.9-3.5l-3.6-4.1l-2.3-1.3l-4.7-6.2l-5.2-5
		l-2.3-4.9l-2.2-1.8l-5-6.4l-2.1-4.1l-3.3-3.8l-8.4-6.4l-0.7-1.3l-9.1-6.4l5.8,3.2l1.6-0.9l-0.9-3.1l-2.6,1.5l-7.7-5.3l2.5,2.9
		l-3.9-3.2l-0.9-3.8l1.6,0.2l-1.4-6l-0.5,4.8l-2.6-1.7l-3-6.3l3.4,3.8l0.1-2.3l3,1.7l-2.2-3.2l-2.7-1.7l-2.9,0.2L291,264l-0.7,2.8
		l-1.5-2.9l-5.8-3.8l-2.9,0.6l-7.5-4.7l3.6-1.2l1.9-3.2l-5.8,3l-0.9-1.8l-3.2-0.5l0.4-1.5l-3.6-2.2l0.4-6.4l3.7-5.7L269.3,236.8
		L269.3,236.8z"/>
	<path class="st1" d="M289.9,216.9L289.9,216.9l-2.4-1.6l-2.4-4l1.1-3.5l-0.2-5.5l-2.9-3.2l0.4-1.5l-2.6-2.3l-0.7-2.2l-2.7-2
		l-2.8-7.6l2-2.6l4.6-0.2l5.7,1.6l2.5-2.1l-2.3-8l0.7-4.5l-1.4-17.4l2.3-0.2l2-16.2l0.4-1.2l-0.6-12.9l-2.6-2.7l-2.4-1.1l-5.5-5.5
		l2.3-13.7l17.6,0.8l0.4-12.5l39.5,1.2l3.6,1.7l1.6,3.8l2.8,3.7l3.7,1.6l5.5,6l4.1,3l0.8,1.9l4.5,4.2l3.1,1.2l5.2,3.7l2.8,3.4
		l0.8,3.9l4,6v7l2.6,4.2l0.9,3.3l4.3,3.6l2,0.3l5,5.2l6.3,1.7l2.8,2.9l3.1,0.6l4.1,3.5l1.5-0.1l-15.5,30.6l8.3,35.1l-7.7-3.2
		l-4.2-0.4l-2.8,1.5l-7,9.6l-1.9,0.6l-5.8-3.7l-3.8-0.6l-0.9,1.3l-2.2-2.5l-5.2,2.5l-5.5-3.2l-3-3.6l-3.1,0.2l-5.3-4.1l-1.6,2.8
		l-1.6-0.2l-0.3,3.6l-1.4,1.4l-0.1,3.7l-5,1.8l1.4,5.4l-0.7,2.7l-3.1,2l-0.6,5.8l-4.5,3.9l-5.3-0.3L322,251l-3.2-2.1l-2-5.9
		l-1.7-1.4l-8.5-2l-0.7-1.4l-0.8-9.7l-3.9-6.1l-0.4-2.8l-4.2-1.6l-1.4-2l-2.8-1.1l-2.3,2.6L289.9,216.9z"/>
	<path class="st1" d="M656.5,452.8l2.6,5.8l-0.5,3.1l2.8,1.3l1,1.9l5.5,2.1l3.4,3.3l-0.6,3.6l1.5,1.2l-1.2,2.1l-6.1,4.6l-28.2-0.4
		l-1.8-4l-2-0.7l-5-5.2l1-4.2l-10.4,6.6l-4.9-0.4l-3.3-6.7l3.3-6.1l-1.8-3.4l-3.1-1l-3.9,0.7l-3.2-1.4l-0.7-2.3l-3.5-3.8l-1-3
		l-5-1.8l-1.8-1.6l0.9,3.7l-2.3,3.6l-2-3.9l-8,1.8l-0.9-4.2l-4.6-0.7l-0.7-3.5l2.6-3l-1.2-6.8l4-0.6l3.1-3.2l-6.4-1.1l-4.8-2.8
		l2.2-1.1l-2-2.6l1.6-3.3l0.1-5.5l3.8-5.4V403l-6.6-2.8l-1.7,0.6l-1.8,2.9l-3.9-1.4l-2.3-2.1l-0.1-4.6l2-0.9l1.5,1.4l2-2.6l-0.9-2
		l-3-0.5l-1.2-4.8l-3.2-1.2l-1.7,2.6l-0.2,5.1l-1.2,1.8l-0.8-4.9l-2.3-0.7l-5.5,7.2l-1.1-0.8l-1,2.7l-1.7,0.3l-1.8-2.9l1.4-4.3
		l1.8-1.5l0.9-5.5l4.1,1.1l-0.1-3l2.5-3.8l-2.2-2l-1.9,0.3l0.3-2.6l-2.1,2.3l-3.6-2.9l1.2-2.5l-1.9-1.2l-0.5-3.4l-3-2.2l0.4-2.1
		l3.9-2.6L537,356l2.8-2.1l2.2-4.9l-0.4-3.1l-6.4-4l4.5-0.6l3.6,0.6l0.1-1.7l2.3-0.5l2.8,2.8l5,1.7l0.9,2.3l2-1.6l0.8,4.9l4.1,7.1
		l2.8,3l5.1,4.2l-0.7,4l-1.6,4.1l-1.6-4.5l2-1.1l0.2-2.2l-2.8-2.1l-3.9-4.5l-2.5-4l2,8.7l2.2,3.7l2.3,0.4l-0.1,2.2l4.5,9.3l3.9,6.6
		l1.4,4.5l3.1,3.5l9.7,9.4l6.1,7.8l2.9,9.1l2.4,6l3.3,2.3l1.9,2.9l3,1.5l1.1,3.3l2.6,2.7l-3-0.5l4.1,2.7l6.4,1.6l-4.3-1.8l6.2,1.2
		l7.4-0.5l5.6,4l5.1,0.6l6.5,9.1l3.1,1.1L656.5,452.8z"/>
	<path class="st1" d="M390.9,348.7l0.3-0.7l0.1-0.9l2.6-8.9l0.4-13l1.4-1.9l0.7-6.8l4.2-3.6l0.6-2.3l2.1,0.6l0.7-1.8l-1.8-2.2
		l0.7-2.1l-1.4-2l1.6-0.5l-0.1-3.5l4.4-2.5l3.8-5l2.2-0.3l0.7-2l3.8-1.8l11.1,2.1l7.7-1.8l-0.2-9.6L432,271l2.1-1.4l10.1-1.2
		l7.7,2.2l2.4,3.7l4.4,1.6l-0.6,3.4l3.9,0.1l2.8-2.4l3.7,1.1l2.6,4.2l6.7,1.9l-0.9,2.7l-3,2.7l-6.1,10.6l-10.3,8l-1.3,2.2l-2.8,1.4
		l-2.7,3.5l-3.3,2.8l-3-1.3l-1.3,3.8l-1.4,1l1.9,3.6l-0.6,3.2l3.5,6.2l4.2,2.9l3.1,4.5l1.8,0.9l3.4-1.5l1.1-2.4l5.8-0.2l1.4,3
		l-2,3.3l1.5,7.5l-4.8,6.9l-2.6-2.3l-3.6-1l-2.1-1.4l-3.4-2.9l-0.6-4.2l-2-0.4l-2.3-2.2l-1.2,0.6l-2-3l-1.3,1.8l-4.2,2.6h-2.8
		l-0.7,2.6l-4.9,7.7l-0.3,2.2l2.4,2.8l-0.4,3.9l3.5,1.1l-1.1,4.6l-3.1,3l-6,0.2l-0.3,6.7l-4.5-0.9l-7-3.2l-2.2,0.1l-1.2-1.8
		l-2.5,0.8l0.8-4.3L406,369l1.8,1l3.7-3.1l-0.2-5.9l3.1-3l2.8-1.7l3.4-0.4l1.7-2l-1-1.8l2.1-3l-0.3-1.6l-3.4-0.4l0.1-1.7l-4.7-3.7
		l-1.4,3l1.8,1.6l-2.3,3l-1,2.9h-4.7l-0.1-5.1l1.8-5.6l-1.2-1.8l-2.6,0.8l-2.3,10.5l-0.9-4.5l0.9-6.2l1.5-1.5l0.4-3.1l-5.2-1
		l-0.1,5.4l1.6,2.4l-0.8,3.4l-4.4,0.6L390.9,348.7z"/>
	<path class="st1" d="M453.8,355l-1.2,1.8l-3.9,2.4l-0.7,2.7l-3.8,2.5l-7.2-0.7l-2.9-1.8l-3.4,0.8l-2.4-2.8l0.3-2.2l4.9-7.7l0.7-2.6
		h2.8l4.2-2.6l1.3-1.8l2,3l1.2-0.6l2.3,2.2l2,0.4l0.6,4.2L453.8,355z"/>
	<path class="st1" d="M430.7,362.7l3.4-0.8l2.9,1.8l7.2,0.7l3.8-2.5l0.7-2.7l3.9-2.4l1.2-1.8l2.1,1.4l3.6,1l2.6,2.3l-1.5,1.8
		l1.1,3.9l-2.4,3.4l1.7,4.6l-2.8,3.1l-2.2,0.2l-2,2.3l-4.7,7.7l-0.9,4l2.8,2.6l-0.1,2l-3,4.7l-3.6,1.4l-1.4-0.6l-5.1,1.4l-4.6,2.7
		L423,408l0.1,2.9l7.7,1.1l1.7,2.6l-2.6,1.2l0.4,3.6l1.5,2.9l-0.1,2.9l3.4-0.5l1.8,2.8L434,432l-1.8-0.7l-4,1.6l-2.7,4l-4.6,2.6
		l-3.4-2.3l-1.3,1.9l-3.4,0.3l-1.2-3.5l0.7-6.1l-2.7-2.4l-0.9-2.1l-5.1,2.4l-5.6-2.9l-1.8,0.9l-2.4,4.2l-6.7,2.4l-1.5-0.5l-1.5,2.7
		l-3.6-2.2h-1.9l-5.4-3.8l-1.8-5.4l-4.2-2.8l-7-10.2l-0.7-4.6l-3.7-5.7l3.2-2.2l6.4-0.7l2.2-1.8l-1.2-2.8l5-6.4l4.4-0.3l3.2-2.4
		l1.8,0.3l2.7,2.4l2.5,0.4l1.2,1.8l4.9,3.7l0.4-4.2l1.5-3.1l-0.3-5.4l3.6-1l2.6-1.8l0.9-2.9l-6.8-3.9l1.3-2.1l1.5-5.2l-7.6-8.3
		l1.8-5l5-2.1l4.4-0.6l0.8-3.4l-1.6-2.4l0.1-5.4l5.2,1l-0.4,3.1l-1.5,1.5l-0.9,6.2l0.9,4.5l2.3-10.5l2.6-0.8l1.2,1.8l-1.8,5.6
		l0.1,5.1h4.7l1-2.9l2.3-3l-1.8-1.6l1.4-3l4.7,3.7l-0.1,1.7l3.4,0.4l0.3,1.6l-2.1,3l1,1.8l-1.7,2l-3.4,0.4l-2.8,1.7l-3.1,3l0.2,5.9
		l-3.7,3.1l-1.8-1l0.8,3.9l-0.8,4.3l2.5-0.8l1.2,1.8l2.2-0.1l7,3.2l4.5,0.9l0.3-6.7l6-0.2l3.1-3l1.1-4.6l-3.5-1.1L430.7,362.7z"/>
	<path class="st1" d="M494.6,403.8l2.9,3.4l0.1,3l1.4,1.1l-2.1,10.4l1.5,3.9l-4.4,2.8l0.9,1.8l-8.2,10.9l-1.5,2.1l-0.8-1.8l-1.9,2.1
		l1.6,7.5l3.2,2.3l-2,2.6l-0.1-2.2l-3.3-2.4h-3.8l-1.6-1.1l-6,0.2l-6.1,1.8l-4.1-2.7l-5,0.2L454,453l0.5,4.5l-1.4,2.4l-5.9,1.3
		l-0.2,6.7l-11.2-3.4l-3.7-0.5l-7.4-3.1l-2.3-0.2l-6.4-2l-3.6-1.8l-2-4.4l-3.5-3L406,447l3-3l0.5-2.5l3.3-2l3.4-0.3l1.3-1.9l3.4,2.3
		l4.6-2.6l2.7-4l4-1.6l1.8,0.7l2.8-4.4l-1.8-2.8l-3.4,0.5l0.1-2.9l-1.5-2.9l-0.4-3.6l2.6-1.2l-1.7-2.6l-7.7-1.1V408l10.2-3.2
		l4.6-2.7l5.1-1.4l1.4,0.6l3.6-1.4l3.9,0.5l1.2,4.5h5.5l1.8-3l4-0.8l2.2,1.8l-1,5.8l5.8,0.5l0.7-1.8l4.2,0.2l-0.4,3.9l2.6,0.7
		l2.2-1.5l1.4,1.8l5.5-1.2l0.4,1l3.7-1.6l-0.1-3L494.6,403.8z"/>
	<path class="st1" d="M661,510.1l-1.7-2.1l-2.1,0.8l-5.3-2.2l-0.4,2l5.5,1.3l3.7,1.7l-0.5,1.2l-8.8-3.1l-6.9,0.1l2.9-2.5l-1.9-2.1
		l-2.8,2l-2.6-3.7l-5.4,4.7l6.9,0.7l-11.2,2.7l-3.1,2.2l-2,3l-13.7,4.7l-7.2,4.3l-5.2-0.1l-3.3,1.1l-3.4-1.3l-4.4-0.4l-4.7-1.9
		l-3.7-2.5l-2.8-0.8l-13.4-0.8l-10.7-6l-10.1-2.7l4.2-1.6l1.8-1.8l-0.4-3.6l2.6-0.4l-0.2-3.4l2.1-0.2l2.2-2.1l1.7-6.8l-4-5.2l-2-0.1
		l-2.8-3.1v-4l-1.8-4.3l1.4-6.1l-0.6-1l2.8-0.6l1.7-3l6.5-0.7l0.9,2.7h2.2l1.9-2l-2.3-3.6l2.3-4.7l3.1-1.7l-0.8,4.4l2.6,2.6l1.5,3
		h1.8l2.8-4.4l3.3-1.1l4.3,1.4l3.6-3.5l2.4-1.3l1.5-3.5l2.3-3.6l-0.9-3.7l1.8,1.6l5,1.8l1,3l3.5,3.8l0.7,2.3l3.2,1.4l3.9-0.7l3.1,1
		l1.8,3.4l-3.3,6.1l3.3,6.7l4.9,0.4l10.4-6.6l-1,4.2l5,5.2l2,0.7l1.8,4l28.2,0.4l0.4,3.9l-0.9,3.7l-3,2v4.2l-2.1,4.4l2.6,6.4
		L661,510.1z"/>
	<path class="st1" d="M537.8,435.5l0.2-4.6l-1.2-5.5l0.7-2l4.5,0.6l3.1,5.3l4.2,3.7l3.6-3.1l3.1,1.4l2.1-1.6l0.4-2.8l4.2,0.6
		l1.2-2.1l-3.6-2.2l-2.2,0.4l-0.1-2.9l-5.1-2.3l0.1-1.6l-3,0.6l-2.8-5.5l3.5-6l-1-3.4l-2.8,0.4l0.1-3.1l2-0.6l3.9-4.4l1.2-1.8
		l0.2-5.1l1.7-2.6l3.2,1.2l1.2,4.8l3,0.5l0.9,2l-2,2.6l-1.5-1.4l-2,0.9l0.1,4.6l2.3,2.1l3.9,1.4l1.8-2.9l1.7-0.6l6.6,2.8v1.8
		l-3.8,5.4l-0.1,5.5l-1.6,3.3l2,2.6l-2.2,1.1l4.8,2.8l6.4,1.1l-3.1,3.2l-4,0.6l1.2,6.8l-2.6,3l0.7,3.5l4.6,0.7l0.9,4.2l8-1.8l2,3.9
		l-1.5,3.5l-2.4,1.3l-3.6,3.5l-4.3-1.4l-3.3,1.1l-2.8,4.4h-1.8l-1.5-3l-2.6-2.6l0.8-4.4l-3.1,1.7l-2.3,4.7l2.3,3.6l-1.9,2h-2.2
		l-0.9-2.7l-6.5,0.7l-1.7,3l-2.8,0.6l-1.8-1.8l-3.6,0.3l-6.2-2l-1.1-2.2l-2.4-0.6l-3-2.6l-0.5-3.1l6.1-4.2l3.5,1.8l-2.2-7.2l2,0.1
		l-1.7-3.4l1.9-2.2L537.8,435.5z"/>
	<path class="st1" d="M528,454.4l0.5,3.1l3,2.6l2.4,0.6l1.1,2.2l6.2,2l3.6-0.3l1.8,1.8l0.6,1l-1.4,6.1l1.8,4.3v4l2.8,3.1l2,0.1
		l4,5.2l-1.7,6.8l-2.2,2.1l-2.1,0.2l0.2,3.4l-2.6,0.4l0.4,3.6l-1.8,1.8l-4.2,1.6l-6.1-6.4l-2,0.9l-13.7-3.5l-6.1-0.3l-3.6-1.2
		l-6.7-4.9l-28.1-9.2l0.1-1l-3.4-3l-7.2-3l-1.1-2.4l-3.9-1.4l-0.8-2l-3.6-4.1l-5.9-2.6l-3.4,1.9l0.2-6.7l5.9-1.3l1.4-2.4L454,453
		l1.4-3.2l5-0.2l4.1,2.7l6.1-1.8l6-0.2l1.6,1.1h3.8l3.3,2.4l0.1,2.2l2-2.6l-3.2-2.3l-1.6-7.5l1.9-2.1l0.8,1.8l1.5-2.1l4.4,0.7
		l0.7,5.4l2.2,3.1l-0.4,2.1l2.4,1.7l3.2-2.8l1.9-3.3l5.8-1.6l1.7,1.1l3.1-4l2.3,2l2,0.3l2.3,4l2.1,1.9l2.3-0.1l1.2-2.8L528,454.4z"
		/>
	<path class="st1" d="M537.6,423.3l-1.9-3.2l1.3-0.2l2.2-1.4l5.9,0.9l1.9-3.4l3.2,1.1l3-0.6l-0.1,1.6l5.1,2.3l0.1,2.9l2.2-0.4
		l3.6,2.2l-1.2,2.1l-4.2-0.6l-0.4,2.8l-2.1,1.6l-3.1-1.4l-3.6,3.1l-4.2-3.7l-3.1-5.3L537.6,423.3z"/>
	<path class="st1" d="M498.2,320.2v-2l-1.8-1.2l2-1.7l3.5,1l-1.3-4.1l2.6-6l6-1l3.3-5.3l-3.4-2.9l-0.7-2l0.9-5.6l-0.9-4.7l-2.6,1.2
		l-0.7-2.6l2-1.9l2.6-0.3l1.6-2.6l4.5-2.6l3.3,1.4l-0.7-6.1l3.6-3.5l3.7,0.8l10.5-9.9l-2.7-1.3l-0.7-13.6l-0.4-0.8l-6-1.5l-1.8,2.6
		l-3.4-3.3l-2.8,1.2l-1.2-6.1l-2-0.3l-2-2.8l-1.5,1l-0.8-2.7l0.8-2.9l-0.8-1.5L507,225l-2,0.1l2-4.3l-3.4-1.6l-0.7-2.6l1-3.9
		l-2.7-9.6l-3.1-0.3l-0.2-2l4.7-2.8l2.7,0.6l2.3,1.8l1,4l-1.1,3.3l2.3,2.7l-0.7,4.5l1.7,1.3l1.5,4.3l2.3,0.8l0.5,6.3l3.2,1.5
		l0.9,3.1l7.2,0.9l3.9,3.3l1.5-0.7l5.3,1.8l3.8,3.1l10.4-0.3l4.5,1.3l5,4.1l3.8-3.2l3.1-0.3l-0.3,6.7l-3.4,9.5l-3,5.6l-3.9,18.6
		l-0.9,14.1l0.1,7.5l-0.5,13.3l1,7.9l-2.5,6.7l0.3,5.5l2,7.2l-2,1.6l-0.9-2.3l-5-1.7l-2.8-2.8l-2.3,0.5l-0.1,1.7l-3.6-0.6l-4.5,0.6
		l-3.7,0.5l-1.2,1.3l-3.2-0.2l-8-2.1l-3.5-6l-0.9,1.3l-3.4-2.2l0.6,2.6l-3.2-0.7l-8.5-3l-1.4-2.5l3.1-2.5v-1.8l-2.8-4.1l-1.6,1.5
		L498.2,320.2z M553.9,281.5l-1.1,3.6l2.4-0.8l0.3,7.1l-0.7,6.7l0.9,3.8L556,290l0.7-8.6l2.4-14l2.7-6.6v-3.7l-2.6-1.1l0.2,1.9
		l-1.4,2.2l-3-1.1l-0.6,3l1,2.8L554,270l3.1,1l-2.3,2l1.5,6.6l-0.9,4L553.9,281.5z"/>
	<path class="st1" d="M415.2,162.4l3.9,1.1l1-2l5.8-4.8l-0.9-1.3l2.7-8.8l2.3-4.2l3.9-1.2l2.6,0.1l2-3.2l5,2.4l11.4,0.5l2-1.4
		l0.7,1.6l2.7-0.4l1.1,2.7l3,1.7l-0.5,3.5l5.4,0.6l0.6,1.9l4.9,3.2l1.3,2.5l2.3,1.6l1.2,5.3l2.6,3.2l0.7,2.6l2.4,3.1l3,8.1l2.2,2.4
		l3,1.4l2.6,4.4l2.4,2.4l1.9,3.5l-3.8,3.8l-5.3-4.1l-3.5,2.6l-1.2,2.8l-1,6.1l-4.6,1.6l-4.2,3.4l0.1,4.2l2.1,1.1l0.9-2.2l3,1.8
		l-0.7,7.4l-2.9,4.2l-1.1-3.1l-11,10.2l2.6,2.3l1.8,3.5l2.6,1.9l0.3,2.2l1.9,1.2l0.1,4.7l3.2,4.6l1.6,0.2l2.2,3l-2.3-0.9l2.4,3.1
		l3,1.9l3.7-0.2l2.6,1.8l-1.5,1.9l-3,0.5l-3.6-0.9l-3.2,0.6l-2.8,1.8l-1.5,2.9l2.6,2l-1.5,1.9l0.7,4l-1.3,5.2l-6.7-1.9l-2.6-4.2
		l-3.7-1.1l-2.8,2.4l-3.9-0.1l0.6-3.4l-4.4-1.6l-2.4-3.7l-7.7-2.2l-10.1,1.2L432,271l-4.2,5l-0.1,4.7l-3.2-2.1l-4.2-1.1l-2.8-2
		l-0.7-4.1l-2.8-1.8l-3.1-4.3l2.1-3.4l-1.6-3.4l4.1-4.3l-0.7-11.7l1.5-3.9l-0.1-2.8l-8.4-7.6l-8.3-35.1L415.2,162.4z"/>
	<path class="st1" d="M749.7,372.4l-1,0.2l1.8-6.2l5.7-4.3l7.9-4.2l17.1-3.9l10.7-3.8l2.3-2.4l4-1.6h4.3l3.9-2l4.5-0.1l6.8,1.2
		l-2.6,0.7l7.2-0.2l0.9,5.7l-1,5.5l1.8,4.3l-2.8,9.1l-5.5,5.3l-2.8,1.8l-3.9-0.3l-2.6,3.6l-2.6,1.5l-1.5,3.5l-6.6,3.6l-5,4.3
		l-3.8,0.8l-3.6,2.9l-4.3,1.1l-0.8,4.9l-1.4-3.5l-3-2.9l-2.3-3.4l-5-3l-1.8-3.5l-2.1-1.4l-2.3-3.9l-1,1.7l-2.8-0.1l-2-2.2l-4.2-0.7
		L749.7,372.4z"/>
	<path class="st1" d="M326.6,255l5.3,0.3l4.5-3.9l0.6-5.8l3.1-2l0.7-2.7l-1.4-5.4l5-1.8l0.1-3.7l1.4-1.4l0.3-3.6l1.6,0.2l1.6-2.8
		l5.3,4.1l3.1-0.2l3,3.6l5.5,3.2l5.2-2.5l2.2,2.5l0.9-1.3l3.8,0.6l5.8,3.7l1.9-0.6l7-9.6l2.8-1.5l4.2,0.4l7.7,3.2l8.4,7.6l0.1,2.8
		l-1.5,3.9l0.7,11.7l-4.1,4.3l1.6,3.4l-2.1,3.4l3.1,4.3l2.8,1.8l0.7,4.1l2.8,2l4.2,1.1l3.2,2.1l0.1-4.7l4.2-5l4.5,6.9l0.2,9.6
		l-7.7,1.8l-11.1-2.1l-3.8,1.8l-0.7,2l-2.2,0.3l-3.8,5l-4.4,2.5l0.1,3.5l-1.6,0.5l1.4,2l-0.7,2.1l1.8,2.2l-0.7,1.8l-2.1-0.6
		l-0.6,2.3l-4.2,3.6l-0.7,6.8l-1.4,1.9l-0.4,13l-2.6,8.9l-0.6-4.3l-3.6,1.7l-2.8-1.2l-2-4.6l-2.7-1.5l-5,3.7l-0.6-3.7l2.7-3.1
		l-1.5-3.4l-4.6-2.8l-6.5-0.5l-0.1-3.2l-3.9-0.4l-3.4-3.8l-0.7-4.6l-2.8-2.8l-1.8-4.1l-0.4-6.2l1.4-3.4l-2.2-0.3l-2.5-5.7l-3.6-3.1
		h-1.9l-3.3,2.8l-2.6-0.2l-2.2-2.1l-0.6-3.1l-3.3-6.1l-2.4-2.4l-1.9-0.3l-2.5-3.4l-2.1-7.5l0.9-6.3l0.9-2.2L326.6,255z"/>
	<path class="st1" d="M506.4,370.3v3.5l2.3,1.2l-3,2.5l-3.4-1.1l-2.3,1.3l-1.2,6.7l-2,1.1L495,384l-1.8,1.1l-3.6-1.8l-2.6,6.3l2,5.4
		l0.2,2.9l3,4.5l2.3,1.6l-2.8,3.9l0.1,3l-3.7,1.6l-0.4-1l-5.5,1.2l-1.4-1.8l-2.2,1.5l-2.6-0.7l0.4-3.9l-4.2-0.2l-0.7,1.8l-5.8-0.5
		l1-5.8l-2.2-1.8l-4,0.8l-1.8,3h-5.5l-1.2-4.5l-4-0.6l3-4.7l0.1-2l-2.8-2.6l0.9-4l4.7-7.7l2-2.3l2.2-0.2l2.8-3.1l-1.7-4.6l2.4-3.4
		l-1.1-3.9l1.5-1.8l1.8,0.5l3.1-1.5l1.7,2.7l7.6,0.5l8.7,6.9l3.2-0.7l1-3.7l1.3-0.9l8.5,3.2l3.1,2.5L506.4,370.3z"/>
	<path class="st1" d="M498.2,320.2l-0.7,3.3l1.6-1.5l2.8,4.1v1.8l-3.1,2.5l1.4,2.5l8.5,3l3.2,0.7l-0.6-2.6l3.4,2.2l0.9-1.3l3.5,6
		l8,2.1l3.2,0.2l1.2-1.3l3.7-0.5l6.4,4l0.4,3.1l-2.2,4.9l-2.8,2.1l2.7,3.5l-3.9,2.6l-0.4,2.1l3,2.2l0.5,3.4l-1.8,0.7l-0.1,4.6
		l-5.8,1.2l-3.1-3l-2.6,0.7l-1.8-0.5l0.3-2.5l-2.8-7.3l-4.5,6.1l-4.8,1.3l-3.9-3.3l-1.7,2.7l-4.3-1l-3.1-2.5l-8.5-3.2l-1.3,0.9
		l-1,3.7l-3.2,0.7l-8.7-6.9l-7.6-0.5l-1.7-2.7l-3.1,1.5l-1.8-0.5l4.8-6.9l-1.5-7.5l2-3.3l-1.4-3l-5.8,0.2l-1.1,2.4l-3.4,1.5
		l-1.8-0.9l-3.1-4.5l-4.2-2.9l-3.5-6.2l0.6-3.2l-1.9-3.6l1.4-1l1.3-3.8l3,1.3l3.3-2.8l2.7-3.5l2.8-1.4l1.3-2.2l10.3-8l6.1-10.6
		l3-2.7l0.9-2.7l5.7,7.6l0.3,7.1l0.7,2.6l2.4,2.9l-0.1,4.5l1.2,4l-0.4,2.7l0.9,5.2l2.5,1l0.3-1.8L498.2,320.2z"/>
	<path class="st1" d="M539,369.7l1.9,1.2l-1.2,2.5l3.6,2.9l2.1-2.3l-0.3,2.6l1.9-0.3l2.2,2l-2.5,3.8l0.1,3l-4.1-1.1l-0.9,5.5
		L540,391l-1.4,4.3l1.8,2.9l1.7-0.3l1.4-2.6l1.1,0.8l5.5-7.2l2.3,0.7l0.8,4.9l-3.9,4.4l-2,0.6l-0.1,3.1l2.8-0.4l1,3.4l-3.5,6
		l2.8,5.5L547,416l-1.9,3.4l-5.9-0.9l-2.2,1.4l1.2-4.3l-2.5-2.9l-3.6-0.9l-2,2.3l-1.4-0.5l0.9-3l-2.3-3l-4.7,1.8l-4.5,6.4l-1.7-4.3
		l-1.9-1.2l0.7-2.9l-1.7-2.7l-2.3,0.9l-5.3-4.8l0.4-5.6l4.8-1.7l3.5-2.7l-0.9-1.9l0.7-2.8l1.9-1.7l1.5-3.7l-0.4-2.3l3.5-0.4l4.7-1.7
		l-0.1-2.6l2.6-0.7l3.1,3l5.8-1.2l0.1-4.6L539,369.7z"/>
</g>
<text transform="matrix(0.7271 0.6865 -0.6865 0.7271 87.0437 115.6128)" class="st2 st3">Baja California</text>
<text transform="matrix(0.7465 0.6653 -0.6653 0.7465 153.785 260.29)" class="st2 st4">Baja California Sur</text>
<text transform="matrix(1 0 0 1 229.0465 139.118)" class="st2 st3">Sonora</text>
<text transform="matrix(0.4731 -0.881 0.881 0.4731 384.0849 471.6532)" class="st2 st3">Colima</text>
<text transform="matrix(1 0 0 1 332.1126 376.1094)" class="st2 st3">Nayarit</text>
<text transform="matrix(1 0 0 1 734.2946 443.5573)" class="st2 st3">Campeche</text>
<text transform="matrix(0.7616 -0.6481 0.6481 0.7616 795.4741 410.7086)" class="st2 st5">Quintana</text>
<text transform="matrix(0.7616 -0.6481 0.6481 0.7616 803.2521 419.8479)" class="st2 st5">Roo</text>
<text transform="matrix(0.294 -0.9558 0.9558 0.294 501.7174 441.1246)" class="st2 st3">México</text>
<text transform="matrix(0.9995 3.061154e-02 -3.061154e-02 0.9995 515.1725 444.7902)" class="st2 st6">Morelos</text>
<text transform="matrix(1 0 0 1 516.0616 424.4332)" class="st2 st7">Distrito</text>
<text transform="matrix(1 0 0 1 516.0616 431.6332)" class="st2 st7">Federal</text>
<text transform="matrix(0.6779 -0.7352 0.7352 0.6779 496.3527 400.9263)" class="st2 st8">Querétaro</text>
<text transform="matrix(1 0 0 1 672.2709 454.0693)" class="st2 st9">Tabasco</text>
<text transform="matrix(1 0 0 1 681.3453 505.0683)" class="st2 st3">Chiapas</text>
<text transform="matrix(1 0 0 1 496.3525 255.0349)" class="st2 st3">Nuevo</text>
<text transform="matrix(1 0 0 1 496.3525 266.0349)" class="st2 st3">León</text>
<text transform="matrix(1 0 0 1 284.4176 258.2463)" class="st2 st3">Sinaloa</text>
<text transform="matrix(1 0 0 1 314.6242 170.1655)" class="st2 st3">Chihuahua</text>
<text transform="matrix(0.7188 0.6952 -0.6952 0.7188 588.3997 431.9749)" class="st2 st9">Veracruz</text>
<text transform="matrix(1 0 0 1 406.0568 312.0193)" class="st2 st3">Zacatecas</text>
<text transform="matrix(1 0 0 1 425.5235 342.8238)" class="st2 st7">Aguascalientes</text>
<text transform="matrix(1 0 0 1 378.1725 406.143)" class="st2 st3">Jalisco</text>
<text transform="matrix(1 0 0 1 428.2472 443.2658)" class="st2 st3">Michoacán</text>
<text transform="matrix(1 0 0 1 582.8951 501.6359)" class="st2 st3">Oaxaca</text>
<text transform="matrix(1 0 0 1 544.2026 451.0686)" class="st2 st10">Puebla</text>
<text transform="matrix(1 0 0 1 476.3552 475.6268)" class="st2 st3">Guerrero</text>
<text transform="matrix(1 0 0 1 542.4852 425.698)" class="st2 st11">Tlaxcala</text>
<text transform="matrix(1 0 0 1 504.7202 321.8011)" class="st2 st9">Tamaulipas</text>
<text transform="matrix(1 0 0 1 425.5234 211.1888)" class="st2 st3">Coahuila</text>
<text transform="matrix(1 0 0 1 764.282 376.1094)" class="st2 st3">Yucatán</text>
<text transform="matrix(1 0 0 1 354.6243 284.7682)" class="st2 st3">Durango</text>
<text transform="matrix(1 0 0 1 462.1176 376.1092)" class="st2 st12">Guanajuato</text>
<text transform="matrix(0.822 0.5695 -0.5695 0.822 458.2595 318.3726)" class="st2 st3">San Luis Potosí</text>
<text transform="matrix(1 0 0 1 516.0612 406.1425)" class="st2 st10">Hidalgo</text>
<path class="st0" d="M890,295h10v10h-10V295z"/>
<path class="st0" d="M5,5"/>
<text transform="matrix(1 0 0 1 780 580)" class="st13 st14">paintmaps.com</text>
<path d="M0,0"/>
</svg>
