<?xml version="1.0" encoding="UTF-8" standalone="no"?><!DOCTYPE svg PUBLIC "-//W3C//DTD SVG 1.1//EN" "http://www.w3.org/Graphics/SVG/1.1/DTD/svg11.dtd"><svg width="100%" height="100%" viewBox="0 0 1000 1000" version="1.1" xmlns="http://www.w3.org/2000/svg" xmlns:xlink="http://www.w3.org/1999/xlink" xml:space="preserve" xmlns:serif="http://www.serif.com/" style="fill-rule:evenodd;clip-rule:evenodd;stroke-linejoin:round;stroke-miterlimit:2;"><rect id="Mesa-de-trabajo2" serif:id="Mesa de trabajo2" x="0" y="0" width="1000" height="1000" style="fill:none;"/><g><path d="M465.249,388.686c25.336,0 46.492,4.054 63.467,12.161c16.975,8.108 30.53,17.482 40.664,28.123c10.134,10.641 17.482,19.762 22.042,27.363l4.56,0l0,-60.046l86.649,0l0,402.842l-86.649,0l0,-60.046l-4.56,0c-4.56,7.601 -11.908,16.722 -22.042,27.363c-10.134,10.641 -23.689,20.015 -40.664,28.123c-16.975,8.108 -38.131,12.161 -63.467,12.161c-30.403,0 -56.879,-5.954 -79.428,-17.862c-22.549,-11.908 -41.424,-27.87 -56.626,-47.885c-15.202,-20.015 -26.476,-42.438 -33.824,-67.267c-7.347,-24.829 -11.021,-50.165 -11.021,-76.008c0,-25.843 3.674,-51.179 11.021,-76.008c7.347,-24.829 18.622,-47.252 33.824,-67.267c15.202,-20.015 34.077,-35.977 56.626,-47.885c22.549,-11.908 49.025,-17.862 79.428,-17.862Zm19.002,72.208c-24.829,0 -45.605,6.714 -62.327,20.142c-16.722,13.428 -29.263,30.53 -37.624,51.305c-8.361,20.776 -12.541,42.564 -12.541,65.367c0,22.802 4.18,44.591 12.541,65.367c8.361,20.776 20.902,37.877 37.624,51.305c16.722,13.428 37.497,20.142 62.327,20.142c24.829,0 45.478,-6.714 61.947,-20.142c16.468,-13.428 28.883,-30.53 37.244,-51.305c8.361,-20.776 12.541,-42.564 12.541,-65.367c0,-22.802 -4.18,-44.591 -12.541,-65.367c-8.361,-20.776 -20.776,-37.877 -37.244,-51.305c-16.468,-13.428 -37.117,-20.142 -61.947,-20.142Z" style="fill:#357ee3;fill-rule:nonzero;"/><circle cx="637.534" cy="271.386" r="78.116" style="fill:#c379d8;"/></g></svg>