<?xml version="1.0" encoding="UTF-8" standalone="no"?><!DOCTYPE svg PUBLIC "-//W3C//DTD SVG 1.1//EN" "http://www.w3.org/Graphics/SVG/1.1/DTD/svg11.dtd"><svg width="100%" height="100%" viewBox="0 0 1080 360" version="1.1" xmlns="http://www.w3.org/2000/svg" xmlns:xlink="http://www.w3.org/1999/xlink" xml:space="preserve" xmlns:serif="http://www.serif.com/" style="fill-rule:evenodd;clip-rule:evenodd;stroke-linejoin:round;stroke-miterlimit:2;"><rect id="Mesa-de-trabajo5" serif:id="Mesa de trabajo5" x="0" y="0" width="1080" height="360" style="fill:none;"/><g><path d="M169.003,141.643c9.715,0 17.826,1.433 24.335,4.298c6.509,2.866 11.706,6.179 15.592,9.94c3.886,3.761 6.703,6.985 8.452,9.672l1.749,0l0,-21.224l33.224,0l0,142.387l-33.224,0l0,-21.224l-1.749,0c-1.749,2.687 -4.566,5.91 -8.452,9.672c-3.886,3.761 -9.083,7.075 -15.592,9.94c-6.509,2.866 -14.62,4.298 -24.335,4.298c-11.657,0 -21.809,-2.104 -30.455,-6.313c-8.646,-4.209 -15.883,-9.851 -21.712,-16.925c-5.829,-7.075 -10.152,-15 -12.969,-23.776c-2.817,-8.776 -4.226,-17.731 -4.226,-26.866c0,-9.134 1.409,-18.089 4.226,-26.866c2.817,-8.776 7.14,-16.701 12.969,-23.776c5.829,-7.075 13.066,-12.716 21.712,-16.925c8.646,-4.209 18.798,-6.313 30.455,-6.313Zm7.286,25.522c-9.52,0 -17.486,2.373 -23.898,7.119c-6.412,4.746 -11.22,10.791 -14.426,18.134c-3.206,7.343 -4.809,15.045 -4.809,23.104c0,8.06 1.603,15.761 4.809,23.104c3.206,7.343 8.014,13.388 14.426,18.134c6.412,4.746 14.377,7.119 23.898,7.119c9.52,0 17.438,-2.373 23.752,-7.119c6.314,-4.746 11.075,-10.791 14.28,-18.134c3.206,-7.343 4.809,-15.045 4.809,-23.104c0,-8.06 -1.603,-15.761 -4.809,-23.104c-3.206,-7.343 -7.966,-13.388 -14.28,-18.134c-6.314,-4.746 -14.232,-7.119 -23.752,-7.119Z" style="fill:#ffffff;fill-rule:nonzero;"/><path d="M454.452,141.643c9.715,0 17.826,1.433 24.335,4.298c6.509,2.866 11.706,6.179 15.592,9.94c3.886,3.761 6.703,6.985 8.452,9.672l1.749,0l0,-21.224l33.224,0l0,142.387l-33.224,0l0,-21.224l-1.749,0c-1.749,2.687 -4.566,5.91 -8.452,9.672c-3.886,3.761 -9.083,7.075 -15.592,9.94c-6.509,2.866 -14.62,4.298 -24.335,4.298c-11.657,0 -21.809,-2.104 -30.455,-6.313c-8.646,-4.209 -15.883,-9.851 -21.712,-16.925c-5.829,-7.075 -10.152,-15 -12.969,-23.776c-2.817,-8.776 -4.226,-17.731 -4.226,-26.866c0,-9.134 1.409,-18.089 4.226,-26.866c2.817,-8.776 7.14,-16.701 12.969,-23.776c5.829,-7.075 13.066,-12.716 21.712,-16.925c8.646,-4.209 18.798,-6.313 30.455,-6.313Zm7.286,25.522c-9.52,0 -17.486,2.373 -23.898,7.119c-6.412,4.746 -11.22,10.791 -14.426,18.134c-3.206,7.343 -4.809,15.045 -4.809,23.104c0,8.06 1.603,15.761 4.809,23.104c3.206,7.343 8.014,13.388 14.426,18.134c6.412,4.746 14.377,7.119 23.898,7.119c9.52,0 17.438,-2.373 23.752,-7.119c6.314,-4.746 11.075,-10.791 14.28,-18.134c3.206,-7.343 4.809,-15.045 4.809,-23.104c0,-8.06 -1.603,-15.761 -4.809,-23.104c-3.206,-7.343 -7.966,-13.388 -14.28,-18.134c-6.314,-4.746 -14.232,-7.119 -23.752,-7.119Z" style="fill:#ffffff;fill-opacity:0.75;fill-rule:nonzero;"/><path d="M273.628,286.717l0.291,-204.178l32.932,0l0,204.178l-33.224,0Z" style="fill:#ffffff;fill-rule:nonzero;"/><path d="M332.061,289.404l0.291,-147.761l32.932,0l0,147.761l-33.224,0Z" style="fill:#ffffff;fill-rule:nonzero;"/><ellipse cx="348.673" cy="98.207" rx="29.952" ry="27.611" style="fill:#c379d8;"/><path d="M556.029,286.717l0,-142.387l33.224,0l0,20.686l1.749,0c1.36,-2.507 3.692,-5.597 6.994,-9.269c3.303,-3.672 7.917,-6.94 13.843,-9.806c5.926,-2.866 13.455,-4.298 22.586,-4.298c11.463,0 21.08,2.418 28.852,7.254c7.772,4.836 13.649,11.284 17.632,19.343c3.983,8.06 5.974,16.925 5.974,26.597l0,91.88l-33.224,0l0,-88.656c0,-8.597 -2.574,-15.851 -7.723,-21.761c-5.149,-5.91 -12.775,-8.866 -22.878,-8.866c-7.966,0 -14.426,1.836 -19.38,5.507c-4.954,3.672 -8.597,8.418 -10.929,14.239c-2.331,5.821 -3.497,12.045 -3.497,18.672l0,80.865l-33.224,0Z" style="fill:#ffffff;fill-rule:nonzero;"/><path d="M698.249,286.717l0,-21.224l86.265,-96.447l-82.185,0l0,-24.716l122.403,0l0,21.224l-86.265,96.447l86.265,0l0,24.716l-126.483,0Z" style="fill:#ffffff;fill-rule:nonzero;"/><path d="M897.008,141.643c9.715,0 17.826,1.433 24.335,4.298c6.509,2.866 11.706,6.179 15.592,9.94c3.886,3.761 6.703,6.985 8.452,9.672l1.749,0l0,-21.224l33.224,0l0,142.387l-33.224,0l0,-21.224l-1.749,0c-1.749,2.687 -4.566,5.91 -8.452,9.672c-3.886,3.761 -9.083,7.075 -15.592,9.94c-6.509,2.866 -14.62,4.298 -24.335,4.298c-11.657,0 -21.809,-2.104 -30.455,-6.313c-8.646,-4.209 -15.883,-9.851 -21.712,-16.925c-5.829,-7.075 -10.152,-15 -12.969,-23.776c-2.817,-8.776 -4.226,-17.731 -4.226,-26.866c0,-9.134 1.409,-18.089 4.226,-26.866c2.817,-8.776 7.14,-16.701 12.969,-23.776c5.829,-7.075 13.066,-12.716 21.712,-16.925c8.646,-4.209 18.798,-6.313 30.455,-6.313Zm7.286,25.522c-9.52,0 -17.486,2.373 -23.898,7.119c-6.412,4.746 -11.22,10.791 -14.426,18.134c-3.206,7.343 -4.809,15.045 -4.809,23.104c0,8.06 1.603,15.761 4.809,23.104c3.206,7.343 8.014,13.388 14.426,18.134c6.412,4.746 14.377,7.119 23.898,7.119c9.52,0 17.438,-2.373 23.752,-7.119c6.314,-4.746 11.075,-10.791 14.28,-18.134c3.206,-7.343 4.809,-15.045 4.809,-23.104c0,-8.06 -1.603,-15.761 -4.809,-23.104c-3.206,-7.343 -7.966,-13.388 -14.28,-18.134c-6.314,-4.746 -14.232,-7.119 -23.752,-7.119Z" style="fill:#ffffff;fill-opacity:0.5;fill-rule:nonzero;"/></g></svg>
